<mxfile host="app.diagrams.net" modified="2021-08-25T02:31:53.377Z" agent="5.0 (Macintosh; Intel Mac OS X 10_15_7) AppleWebKit/537.36 (KHTML, like Gecko) Chrome/92.0.4515.159 Safari/537.36" etag="n5jw56ZoC6ySFxi-5AqG" version="14.9.8" type="github">
  <diagram id="C5RBs43oDa-KdzZeNtuy" name="Page-1">
    <mxGraphModel dx="984" dy="526" grid="1" gridSize="10" guides="1" tooltips="1" connect="1" arrows="1" fold="1" page="1" pageScale="1" pageWidth="827" pageHeight="1169" math="0" shadow="0">
      <root>
        <mxCell id="WIyWlLk6GJQsqaUBKTNV-0" />
        <mxCell id="WIyWlLk6GJQsqaUBKTNV-1" parent="WIyWlLk6GJQsqaUBKTNV-0" />
        <mxCell id="hiNzM9MGv8O_3I57kdG2-53" value="" style="rounded=1;whiteSpace=wrap;html=1;fontSize=7;align=left;fillColor=#ffe6cc;strokeColor=#d79b00;" vertex="1" parent="WIyWlLk6GJQsqaUBKTNV-1">
          <mxGeometry x="360" y="350" width="120" height="60" as="geometry" />
        </mxCell>
        <mxCell id="hiNzM9MGv8O_3I57kdG2-46" value="" style="rounded=1;whiteSpace=wrap;html=1;fontSize=7;align=left;fillColor=#ffe6cc;strokeColor=#d79b00;" vertex="1" parent="WIyWlLk6GJQsqaUBKTNV-1">
          <mxGeometry x="200" y="150" width="120" height="60" as="geometry" />
        </mxCell>
        <mxCell id="hiNzM9MGv8O_3I57kdG2-49" value="" style="rounded=1;whiteSpace=wrap;html=1;fontSize=7;align=left;fillColor=#ffe6cc;strokeColor=#d79b00;" vertex="1" parent="WIyWlLk6GJQsqaUBKTNV-1">
          <mxGeometry x="280" y="270" width="120" height="60" as="geometry" />
        </mxCell>
        <mxCell id="hiNzM9MGv8O_3I57kdG2-48" value="" style="rounded=1;whiteSpace=wrap;html=1;fontSize=7;align=left;fillColor=#ffe6cc;strokeColor=#d79b00;" vertex="1" parent="WIyWlLk6GJQsqaUBKTNV-1">
          <mxGeometry x="120" y="270" width="120" height="60" as="geometry" />
        </mxCell>
        <mxCell id="hiNzM9MGv8O_3I57kdG2-33" style="edgeStyle=orthogonalEdgeStyle;curved=1;rounded=0;orthogonalLoop=1;jettySize=auto;html=1;exitX=0;exitY=0.5;exitDx=0;exitDy=0;entryX=1;entryY=0.5;entryDx=0;entryDy=0;fontSize=7;startArrow=none;startFill=0;" edge="1" parent="WIyWlLk6GJQsqaUBKTNV-1" source="hiNzM9MGv8O_3I57kdG2-9" target="hiNzM9MGv8O_3I57kdG2-31">
          <mxGeometry relative="1" as="geometry" />
        </mxCell>
        <mxCell id="hiNzM9MGv8O_3I57kdG2-9" value="data" style="rounded=1;whiteSpace=wrap;html=1;fontSize=8;fillColor=#dae8fc;strokeColor=#6C8EBF;" vertex="1" parent="WIyWlLk6GJQsqaUBKTNV-1">
          <mxGeometry x="190" y="295" width="40" height="20" as="geometry" />
        </mxCell>
        <mxCell id="hiNzM9MGv8O_3I57kdG2-12" value="&lt;span style=&quot;font-size: 7px&quot;&gt;Function &lt;b&gt;declaration&lt;/b&gt;&amp;nbsp;(it will set the &lt;b&gt;&#39;data&#39;&lt;/b&gt; into the state).&lt;/span&gt;" style="rounded=1;whiteSpace=wrap;html=1;fontSize=7;fillColor=#f5f5f5;strokeColor=#666666;fontColor=#333333;dashed=1;" vertex="1" parent="WIyWlLk6GJQsqaUBKTNV-1">
          <mxGeometry x="90" y="120" width="90" height="30" as="geometry" />
        </mxCell>
        <mxCell id="hiNzM9MGv8O_3I57kdG2-15" value="&lt;font style=&quot;font-size: 7px&quot;&gt;Component&lt;/font&gt;&lt;br&gt;B" style="ellipse;whiteSpace=wrap;html=1;aspect=fixed;fillColor=#ffe6cc;strokeColor=#d79b00;" vertex="1" parent="WIyWlLk6GJQsqaUBKTNV-1">
          <mxGeometry x="160" y="250" width="40" height="40" as="geometry" />
        </mxCell>
        <mxCell id="hiNzM9MGv8O_3I57kdG2-17" value="&lt;font style=&quot;font-size: 7px&quot;&gt;Component&lt;/font&gt;&lt;br&gt;C" style="ellipse;whiteSpace=wrap;html=1;aspect=fixed;fillColor=#ffe6cc;strokeColor=#d79b00;" vertex="1" parent="WIyWlLk6GJQsqaUBKTNV-1">
          <mxGeometry x="320" y="250" width="40" height="40" as="geometry" />
        </mxCell>
        <mxCell id="hiNzM9MGv8O_3I57kdG2-23" value="&lt;span style=&quot;font-size: 7px&quot;&gt;Function &lt;b&gt;call&lt;/b&gt;&amp;nbsp;with the actual &lt;b&gt;&#39;data&#39;&lt;/b&gt;.&lt;/span&gt;" style="rounded=1;whiteSpace=wrap;html=1;fontSize=7;dashed=1;fillColor=#f5f5f5;strokeColor=#666666;fontColor=#333333;" vertex="1" parent="WIyWlLk6GJQsqaUBKTNV-1">
          <mxGeometry x="100" y="370" width="80" height="30" as="geometry" />
        </mxCell>
        <mxCell id="hiNzM9MGv8O_3I57kdG2-61" style="edgeStyle=orthogonalEdgeStyle;curved=1;rounded=0;orthogonalLoop=1;jettySize=auto;html=1;exitX=0;exitY=0;exitDx=0;exitDy=0;entryX=0;entryY=1;entryDx=0;entryDy=0;fontSize=8;startArrow=none;startFill=0;" edge="1" parent="WIyWlLk6GJQsqaUBKTNV-1" source="hiNzM9MGv8O_3I57kdG2-31" target="hiNzM9MGv8O_3I57kdG2-27">
          <mxGeometry relative="1" as="geometry">
            <Array as="points">
              <mxPoint x="130" y="294" />
              <mxPoint x="130" y="196" />
            </Array>
          </mxGeometry>
        </mxCell>
        <mxCell id="hiNzM9MGv8O_3I57kdG2-31" value="function call" style="ellipse;whiteSpace=wrap;html=1;aspect=fixed;fontSize=7;align=center;" vertex="1" parent="WIyWlLk6GJQsqaUBKTNV-1">
          <mxGeometry x="130" y="290" width="30" height="30" as="geometry" />
        </mxCell>
        <mxCell id="hiNzM9MGv8O_3I57kdG2-34" value="&lt;span style=&quot;font-size: 7px&quot;&gt;Function updates state with &lt;b&gt;&#39;data&#39;&lt;/b&gt;.&lt;/span&gt;" style="rounded=1;whiteSpace=wrap;html=1;fontSize=7;fillColor=#f5f5f5;strokeColor=#666666;fontColor=#333333;dashed=1;" vertex="1" parent="WIyWlLk6GJQsqaUBKTNV-1">
          <mxGeometry x="340" y="120" width="90" height="30" as="geometry" />
        </mxCell>
        <mxCell id="hiNzM9MGv8O_3I57kdG2-35" value="&lt;span style=&quot;font-size: 7px&quot;&gt;Using &lt;b&gt;props&lt;/b&gt; to propagate &lt;b&gt;&#39;data&#39;&lt;/b&gt;.&lt;/span&gt;" style="rounded=1;whiteSpace=wrap;html=1;fontSize=7;fillColor=#f5f5f5;strokeColor=#666666;fontColor=#333333;dashed=1;" vertex="1" parent="WIyWlLk6GJQsqaUBKTNV-1">
          <mxGeometry x="440" y="235" width="90" height="30" as="geometry" />
        </mxCell>
        <mxCell id="hiNzM9MGv8O_3I57kdG2-36" value="&lt;span style=&quot;font-size: 7px&quot;&gt;Extracting &lt;b&gt;&#39;data&#39;&lt;/b&gt; out of &lt;b&gt;props&lt;/b&gt;.&lt;/span&gt;" style="rounded=1;whiteSpace=wrap;html=1;fontSize=7;fillColor=#f5f5f5;strokeColor=#666666;fontColor=#333333;dashed=1;" vertex="1" parent="WIyWlLk6GJQsqaUBKTNV-1">
          <mxGeometry x="345" y="415" width="90" height="30" as="geometry" />
        </mxCell>
        <mxCell id="hiNzM9MGv8O_3I57kdG2-0" value="&lt;font style=&quot;font-size: 7px&quot;&gt;Component&lt;/font&gt;&lt;br&gt;A" style="ellipse;whiteSpace=wrap;html=1;aspect=fixed;fillColor=#ffe6cc;strokeColor=#d79b00;" vertex="1" parent="WIyWlLk6GJQsqaUBKTNV-1">
          <mxGeometry x="240" y="130" width="40" height="40" as="geometry" />
        </mxCell>
        <mxCell id="hiNzM9MGv8O_3I57kdG2-60" style="edgeStyle=orthogonalEdgeStyle;curved=1;rounded=0;orthogonalLoop=1;jettySize=auto;html=1;exitX=0;exitY=0.5;exitDx=0;exitDy=0;entryX=0;entryY=0.5;entryDx=0;entryDy=0;fontSize=8;startArrow=none;startFill=0;" edge="1" parent="WIyWlLk6GJQsqaUBKTNV-1" source="hiNzM9MGv8O_3I57kdG2-27" target="hiNzM9MGv8O_3I57kdG2-31">
          <mxGeometry relative="1" as="geometry" />
        </mxCell>
        <mxCell id="hiNzM9MGv8O_3I57kdG2-62" style="edgeStyle=orthogonalEdgeStyle;curved=1;rounded=0;orthogonalLoop=1;jettySize=auto;html=1;exitX=1;exitY=0.5;exitDx=0;exitDy=0;entryX=0;entryY=0.5;entryDx=0;entryDy=0;fontSize=8;startArrow=none;startFill=0;" edge="1" parent="WIyWlLk6GJQsqaUBKTNV-1" source="hiNzM9MGv8O_3I57kdG2-27" target="hiNzM9MGv8O_3I57kdG2-30">
          <mxGeometry relative="1" as="geometry" />
        </mxCell>
        <mxCell id="hiNzM9MGv8O_3I57kdG2-27" value="function" style="ellipse;whiteSpace=wrap;html=1;aspect=fixed;fontSize=7;align=center;" vertex="1" parent="WIyWlLk6GJQsqaUBKTNV-1">
          <mxGeometry x="220" y="170" width="30" height="30" as="geometry" />
        </mxCell>
        <mxCell id="hiNzM9MGv8O_3I57kdG2-63" style="edgeStyle=orthogonalEdgeStyle;curved=1;rounded=0;orthogonalLoop=1;jettySize=auto;html=1;exitX=1;exitY=0.5;exitDx=0;exitDy=0;entryX=0.5;entryY=0;entryDx=0;entryDy=0;fontSize=8;startArrow=none;startFill=0;" edge="1" parent="WIyWlLk6GJQsqaUBKTNV-1" source="hiNzM9MGv8O_3I57kdG2-30" target="hiNzM9MGv8O_3I57kdG2-50">
          <mxGeometry relative="1" as="geometry" />
        </mxCell>
        <mxCell id="hiNzM9MGv8O_3I57kdG2-30" value="state" style="ellipse;whiteSpace=wrap;html=1;aspect=fixed;fontSize=7;align=center;" vertex="1" parent="WIyWlLk6GJQsqaUBKTNV-1">
          <mxGeometry x="270" y="170" width="30" height="30" as="geometry" />
        </mxCell>
        <mxCell id="hiNzM9MGv8O_3I57kdG2-64" style="edgeStyle=orthogonalEdgeStyle;curved=1;rounded=0;orthogonalLoop=1;jettySize=auto;html=1;exitX=1;exitY=0.5;exitDx=0;exitDy=0;entryX=0.5;entryY=0;entryDx=0;entryDy=0;fontSize=8;startArrow=none;startFill=0;" edge="1" parent="WIyWlLk6GJQsqaUBKTNV-1" source="hiNzM9MGv8O_3I57kdG2-50" target="hiNzM9MGv8O_3I57kdG2-54">
          <mxGeometry relative="1" as="geometry" />
        </mxCell>
        <mxCell id="hiNzM9MGv8O_3I57kdG2-50" value="props" style="ellipse;whiteSpace=wrap;html=1;aspect=fixed;fontSize=7;align=center;" vertex="1" parent="WIyWlLk6GJQsqaUBKTNV-1">
          <mxGeometry x="360" y="290" width="30" height="30" as="geometry" />
        </mxCell>
        <mxCell id="hiNzM9MGv8O_3I57kdG2-57" style="edgeStyle=orthogonalEdgeStyle;curved=1;rounded=0;orthogonalLoop=1;jettySize=auto;html=1;exitX=0;exitY=0.5;exitDx=0;exitDy=0;entryX=1;entryY=0.5;entryDx=0;entryDy=0;fontSize=7;startArrow=none;startFill=0;" edge="1" parent="WIyWlLk6GJQsqaUBKTNV-1" source="hiNzM9MGv8O_3I57kdG2-54" target="hiNzM9MGv8O_3I57kdG2-56">
          <mxGeometry relative="1" as="geometry" />
        </mxCell>
        <mxCell id="hiNzM9MGv8O_3I57kdG2-54" value="props" style="ellipse;whiteSpace=wrap;html=1;aspect=fixed;fontSize=7;align=center;" vertex="1" parent="WIyWlLk6GJQsqaUBKTNV-1">
          <mxGeometry x="440" y="370" width="30" height="30" as="geometry" />
        </mxCell>
        <mxCell id="hiNzM9MGv8O_3I57kdG2-56" value="data" style="rounded=1;whiteSpace=wrap;html=1;fontSize=8;fillColor=#dae8fc;strokeColor=#6c8ebf;" vertex="1" parent="WIyWlLk6GJQsqaUBKTNV-1">
          <mxGeometry x="370" y="375" width="40" height="20" as="geometry" />
        </mxCell>
        <mxCell id="hiNzM9MGv8O_3I57kdG2-16" value="&lt;font style=&quot;font-size: 7px&quot;&gt;Component&lt;/font&gt;&lt;br&gt;D" style="ellipse;whiteSpace=wrap;html=1;aspect=fixed;fillColor=#ffe6cc;strokeColor=#d79b00;" vertex="1" parent="WIyWlLk6GJQsqaUBKTNV-1">
          <mxGeometry x="400" y="330" width="40" height="40" as="geometry" />
        </mxCell>
        <mxCell id="hiNzM9MGv8O_3I57kdG2-70" style="edgeStyle=orthogonalEdgeStyle;curved=1;rounded=0;orthogonalLoop=1;jettySize=auto;html=1;exitX=1;exitY=0.5;exitDx=0;exitDy=0;entryX=0.5;entryY=0;entryDx=0;entryDy=0;fontSize=13;fontColor=#82B366;startArrow=none;startFill=0;strokeColor=#666666;dashed=1;" edge="1" parent="WIyWlLk6GJQsqaUBKTNV-1" source="hiNzM9MGv8O_3I57kdG2-65" target="hiNzM9MGv8O_3I57kdG2-27">
          <mxGeometry relative="1" as="geometry" />
        </mxCell>
        <mxCell id="hiNzM9MGv8O_3I57kdG2-65" value="1" style="ellipse;whiteSpace=wrap;html=1;aspect=fixed;fontSize=13;align=center;fillColor=#f5f5f5;strokeColor=#666666;fontColor=#333333;" vertex="1" parent="WIyWlLk6GJQsqaUBKTNV-1">
          <mxGeometry x="190" y="120" width="20" height="20" as="geometry" />
        </mxCell>
        <mxCell id="hiNzM9MGv8O_3I57kdG2-71" style="edgeStyle=orthogonalEdgeStyle;curved=1;rounded=0;orthogonalLoop=1;jettySize=auto;html=1;exitX=1;exitY=0.5;exitDx=0;exitDy=0;entryX=0.5;entryY=1;entryDx=0;entryDy=0;fontSize=13;fontColor=#82B366;startArrow=none;startFill=0;strokeColor=#666666;dashed=1;" edge="1" parent="WIyWlLk6GJQsqaUBKTNV-1" source="hiNzM9MGv8O_3I57kdG2-66" target="hiNzM9MGv8O_3I57kdG2-31">
          <mxGeometry relative="1" as="geometry" />
        </mxCell>
        <mxCell id="hiNzM9MGv8O_3I57kdG2-66" value="2" style="ellipse;whiteSpace=wrap;html=1;aspect=fixed;fontSize=13;align=center;fillColor=#f5f5f5;fontColor=#333333;strokeColor=#666666;" vertex="1" parent="WIyWlLk6GJQsqaUBKTNV-1">
          <mxGeometry x="100" y="340" width="20" height="20" as="geometry" />
        </mxCell>
        <mxCell id="hiNzM9MGv8O_3I57kdG2-72" style="edgeStyle=orthogonalEdgeStyle;curved=1;rounded=0;orthogonalLoop=1;jettySize=auto;html=1;exitX=0;exitY=0.5;exitDx=0;exitDy=0;entryX=0.5;entryY=0;entryDx=0;entryDy=0;fontSize=13;fontColor=#82B366;startArrow=none;startFill=0;strokeColor=#666666;dashed=1;" edge="1" parent="WIyWlLk6GJQsqaUBKTNV-1" source="hiNzM9MGv8O_3I57kdG2-67" target="hiNzM9MGv8O_3I57kdG2-30">
          <mxGeometry relative="1" as="geometry" />
        </mxCell>
        <mxCell id="hiNzM9MGv8O_3I57kdG2-67" value="3" style="ellipse;whiteSpace=wrap;html=1;aspect=fixed;fontSize=13;align=center;fillColor=#f5f5f5;strokeColor=#666666;fontColor=#333333;" vertex="1" parent="WIyWlLk6GJQsqaUBKTNV-1">
          <mxGeometry x="310" y="120" width="20" height="20" as="geometry" />
        </mxCell>
        <mxCell id="hiNzM9MGv8O_3I57kdG2-74" style="edgeStyle=orthogonalEdgeStyle;curved=1;rounded=0;orthogonalLoop=1;jettySize=auto;html=1;exitX=0;exitY=0.5;exitDx=0;exitDy=0;entryX=1;entryY=0;entryDx=0;entryDy=0;fontSize=13;fontColor=#82B366;startArrow=none;startFill=0;strokeColor=#666666;dashed=1;" edge="1" parent="WIyWlLk6GJQsqaUBKTNV-1" source="hiNzM9MGv8O_3I57kdG2-68" target="hiNzM9MGv8O_3I57kdG2-50">
          <mxGeometry relative="1" as="geometry" />
        </mxCell>
        <mxCell id="hiNzM9MGv8O_3I57kdG2-68" value="4" style="ellipse;whiteSpace=wrap;html=1;aspect=fixed;fontSize=13;align=center;fillColor=#f5f5f5;fontColor=#333333;strokeColor=#666666;" vertex="1" parent="WIyWlLk6GJQsqaUBKTNV-1">
          <mxGeometry x="410" y="240" width="20" height="20" as="geometry" />
        </mxCell>
        <mxCell id="hiNzM9MGv8O_3I57kdG2-75" style="edgeStyle=orthogonalEdgeStyle;curved=1;rounded=0;orthogonalLoop=1;jettySize=auto;html=1;exitX=0.5;exitY=0;exitDx=0;exitDy=0;entryX=0.5;entryY=1;entryDx=0;entryDy=0;fontSize=13;fontColor=#82B366;startArrow=none;startFill=0;strokeColor=#666666;dashed=1;" edge="1" parent="WIyWlLk6GJQsqaUBKTNV-1" source="hiNzM9MGv8O_3I57kdG2-69" target="hiNzM9MGv8O_3I57kdG2-54">
          <mxGeometry relative="1" as="geometry" />
        </mxCell>
        <mxCell id="hiNzM9MGv8O_3I57kdG2-69" value="5" style="ellipse;whiteSpace=wrap;html=1;aspect=fixed;fontSize=13;align=center;fillColor=#f5f5f5;fontColor=#333333;strokeColor=#666666;" vertex="1" parent="WIyWlLk6GJQsqaUBKTNV-1">
          <mxGeometry x="445" y="420" width="20" height="20" as="geometry" />
        </mxCell>
        <mxCell id="hiNzM9MGv8O_3I57kdG2-79" value="&lt;h1&gt;React: lifting the state up&lt;/h1&gt;&lt;p&gt;Understanding how to acquire data on a component and pass it to another component through a common ancestor.&lt;/p&gt;" style="text;html=1;spacing=5;spacingTop=-20;whiteSpace=wrap;overflow=hidden;rounded=1;fontSize=10;align=left;fillColor=#f5f5f5;strokeColor=#666666;fontColor=#333333;glass=0;sketch=1;shadow=0;" vertex="1" parent="WIyWlLk6GJQsqaUBKTNV-1">
          <mxGeometry x="135" y="20" width="300" height="80" as="geometry" />
        </mxCell>
        <mxCell id="hiNzM9MGv8O_3I57kdG2-78" value="© Colo.Codes" style="text;html=1;strokeColor=none;fillColor=none;align=center;verticalAlign=middle;whiteSpace=wrap;rounded=0;fontSize=10;fontColor=#999999;" vertex="1" parent="WIyWlLk6GJQsqaUBKTNV-1">
          <mxGeometry x="365" y="80" width="70" height="20" as="geometry" />
        </mxCell>
      </root>
    </mxGraphModel>
  </diagram>
</mxfile>
